<svg xmlns="http://www.w3.org/2000/svg" viewBox="0 0 24 24" fill="#25D366">
  <path d="M12 0C5.373 0 0 5.373 0 12c0 2.092.543 4.137 1.573 5.936L0 24l6.175-1.573A11.954 11.954 0 0012 24c6.627 0 12-5.373 12-12S18.627 0 12 0z"/>
  <path fill="#FFF" d="M17.5 14.5c-.3-.2-1.8-1-2.1-1.1-.3-.1-.5-.1-.7.1-.2.2-.8 1-1 1.2-.2.2-.4.2-.7 0-.3-.2-1.3-1-2.4-1.6-.9-.5-1.5-.9-1.7-1-.2-.1 0-.2.1-.3.1-.1.3-.3.4-.4.1-.1.1-.2 0-.3-.1-.1-.7-1.7-.9-2.3-.2-.6-.4-.5-.7-.5h-.3c-.2 0-.6.1-.9.4-.3.3-1.1 1.1-1.1 2.6 0 1.5 1.1 3 1.2 3.2.1.2 2.1 3.2 5.1 4.5 3 1.3 3 1.1 3.6.9.6-.2 1.9-1 2.2-1.9.3-.9.3-1.7.2-1.9-.1-.2-.4-.3-.7-.4z"/>
</svg>